# xmcd CD database file
#
# Track frame offsets:
#	182
#	14940
#	30972
#	44417
#	58257
#	71737
#	85820
#	100402
#	114870
#	128455
#	142165
#	155735
#	170245
#	184442
#	199352
#	214065
#	228587
#	241692
#	255482
#	268467
#
# Disc length: 3770 seconds
#
# Revision: 10
# Processed by: cddbd v1.4PL0 Copyright (c) Steve Scherf et al.
# Submitted via: CDex 1.50Beta7
#
DISCID=340eb814
DTITLE=Barbecue Bob (Robert Hicks) - Chocolate To The Bone
DYEAR=1992
DGENRE=Blues
TTITLE0=Motherless Chile Blues
TTITLE1=Spider and the Fly
TTITLE2=Yo Yo Blues
TTITLE3=Mississippi Heavy Water Blues
TTITLE4=California Blues
TTITLE5=She's Coming Back Some Cold Rainy Day
TTITLE6=Barbecue Blues
TTITLE7=When The Saints Go Marching In
TTITLE8=Ease It to Me Blues
TTITLE9=Poor Boys a Long Ways from Home
TTITLE10=Diddle-Da-Diddle
TTITLE11=Going Up the Country
TTITLE12=Atlanta Moan
TTITLE13=Good Time Rounder
TTITLE14=It's Just Too Bad
TTITLE15=Twistin' Your Stuff
TTITLE16=Chocolate to the Bone
TTITLE17=Black Skunk Blues
TTITLE18=Jacksonville Blues
TTITLE19=She Shook Her Gin
EXTD=1992, Yazoo, a division of heanachie.   Yazoo 2005 YEAR: 1992
EXTT0=
EXTT1=
EXTT2=
EXTT3=
EXTT4=
EXTT5=
EXTT6=
EXTT7=
EXTT8=
EXTT9=
EXTT10=
EXTT11=
EXTT12=
EXTT13=
EXTT14=
EXTT15=
EXTT16=
EXTT17=
EXTT18=
EXTT19=
PLAYORDER=
